<svg xmlns="http://www.w3.org/2000/svg" viewBox="0 0 17 48" width="17" height="48" aria-label="Apple"><path d="M15.5752 19.0792a4.2055 4.2055 0 0 0-2.01 3.5376 4.0931 4.0931 0 0 0 2.4908 3.7542 9.7779 9.7779 0 0 1-1.2755 2.6351c-.7941 1.1431-1.6244 2.2862-2.8878 2.2862s-1.5883-.734-3.0443-.734c-1.42 0-1.9252.7581-3.0805.7581s-1.9611-1.0589-2.8876-2.3584a11.3987 11.3987 0 0 1-1.9373-6.1487c0-3.61 2.3464-5.523 4.6566-5.523 1.2274 0 2.25.8062 3.02.8062.734 0 1.8771-.8543 3.2729-.8543A4.3778 4.3778 0 0 1 15.5752 19.0792zM10.5807 16.2509a4.0166 4.0166 0 0 0 .9658-2.5074 1.7768 1.7768 0 0 0-.0332-.3375 4.0461 4.0461 0 0 0-2.6663 1.3717 3.8753 3.8753 0 0 0-1.0061 2.4595 1.5113 1.5113 0 0 0 .0331.3013A1.4435 1.4435 0 0 0 8.0978 17.36 3.8267 3.8267 0 0 0 10.5807 16.2509z" fill="currentColor"></path></svg>